<?xml version="1.0" encoding="utf-8"?>
<!-- Generator: Adobe Illustrator 18.0.0, SVG Export Plug-In . SVG Version: 6.00 Build 0)  -->
<!DOCTYPE svg PUBLIC "-//W3C//DTD SVG 1.1//EN" "http://www.w3.org/Graphics/SVG/1.1/DTD/svg11.dtd">
<svg version="1.1" id="Capa_1" xmlns="http://www.w3.org/2000/svg" xmlns:xlink="http://www.w3.org/1999/xlink" x="0px" y="0px"
	 viewBox="0 0 1080 1080" enable-background="new 0 0 1080 1080" xml:space="preserve">
<g>
	<path fill="#FFFFFF" d="M266.5,173.2c-0.4,3.2,1.2,6.5,4,9.8c0.2,0.1,0.5,0.3,0.7,0.5c0.3,0.3,0.5,0.6,0.7,1c2.9,3,6.8,6,11.1,8.9
		c0.2,0.1,0.5,0.2,0.7,0.3c2.1,1.3,4.3,2.7,6.4,4.1c5.6,3.3,11.3,6.4,16.4,9.1c2.1,1.1,3.4,1.8,3.8,2c4.3,2.3,7.2,3.3,9.3,2.7
		c2.1-0.6,4.1-3,6.7-7.5l0.2-0.4c11.3-19.6,17-29.4,24.9-37.3c7.9-7.9,17.7-13.6,37.3-24.9l0.4-0.2c4.5-2.6,6.9-4.6,7.5-6.7
		c0.6-2.1-0.4-5-2.7-9.3c-0.2-0.4-0.9-1.6-2-3.8c-3-5.6-6.4-12.1-10.1-18.2c-1.1-1.6-2.1-3.2-3-4.7c-0.1-0.1-0.1-0.2-0.2-0.3
		c-3-4.5-6.1-8.6-9.3-11.6c-0.3-0.1-0.5-0.3-0.7-0.5c-0.1-0.1-0.2-0.3-0.3-0.4c-3.4-2.9-6.7-4.6-10-4.2
		c-21.7,2.5-43.4,14.6-60.3,31.5C281.2,129.8,269.1,151.4,266.5,173.2L266.5,173.2z M269.3,189.4l-6,6.3c0.4,0.7,0.8,1.4,1.1,2.1
		c1.6,3.3,2.2,6.9,1.7,10.7c0,0.1,0,0.2-0.1,0.3l0,0l-6.1,23.7l0,0c-0.1,0.4,0,0.8,0.2,1.1c0.2,0.3,0.5,0.5,0.9,0.6
		c0.4,0.2,0.9,0.2,1.4,0.2c0.7,0,1.4-0.3,1.8-1c0-0.1,0.1-0.1,0.1-0.2l0,0l23.5-30.3c-0.4-0.3-0.9-0.6-1.3-0.9
		C280.2,198.2,274,193.9,269.3,189.4L269.3,189.4z M404.1,314.6c-0.2-0.2-0.3-0.5-0.4-0.7c-2.9-3.9-6.6-8.2-10.6-12.6l0,0
		c-0.3-0.3-0.6-0.7-0.9-1c-5.7-6.2-11.9-12.5-17.1-17.8c-3.6-3.7-6.7-6.9-8.9-9.2c-12.7-13.7-28.8-29.9-45.6-44.7
		c-9.3-8.2-18.8-15.9-28-22.5l-7.2,9.2c18.2,17.7,36.2,36.2,54.1,54.7c0.2,0.1,0.4,0.3,0.5,0.5c0.4,0.4,0.7,0.8,1.1,1.3
		c7.3,7.6,14.6,15.2,21.8,22.8c3.6,3.4,7.1,6.6,10.7,9.6c10.9,9.3,21.8,16.8,33.2,22.7c0.6,0.3,1.3,0.5,1.9,0.4
		c0.2,0,0.4-0.1,0.5-0.1c0.1-0.1,0.2-0.2,0.3-0.3c0.2-0.4,0.3-1.1,0.2-2c-0.2-2.3-2-5.7-4.8-9.6C404.5,315,404.3,314.8,404.1,314.6
		L404.1,314.6z M408,310.7c0.1,0.1,0.2,0.2,0.3,0.3c1.9,2.2,3.7,4,5.5,5.5c1.8,1.5,3.5,2.6,5.2,3.5c2.8,1.6,5.5,2.6,8,3.1
		c2.4,0.5,4.8,0.5,7.2,0c4.4-0.9,11.2-4.7,18.6-9.7c8.8-6,18.2-13.6,25.5-20.4c6.8-7.3,14.5-16.8,20.4-25.5c5-7.4,8.8-14.2,9.7-18.6
		c0.5-2.4,0.5-4.7,0-7.2c-0.5-2.5-1.6-5.2-3.1-8c-0.9-1.6-2.1-3.4-3.5-5.2c-1.5-1.8-3.3-3.6-5.5-5.5c-0.1-0.1-0.2-0.2-0.3-0.3
		c-4.2-3.1-8.7-6.9-13.2-11l0,0c-1.5-1.4-3.2-2.6-4.9-3.5c-1.6-0.8-3.3-1.3-5-1.2c0,0-0.1,0-0.1,0c-0.4,0.1-0.8,0.3-1,0.6
		c-0.2,0.3-0.4,0.6-0.4,0.9c0,0,0,0.1,0,0.1c1,8.4,1.3,15.4-2.4,23.6c-3.4,7.7-10.3,16.2-23.4,27.8c-11.6,13.1-20.2,20-27.8,23.4
		c-8.2,3.7-15.2,3.4-23.6,2.4c0,0-0.1,0-0.1,0c-0.3,0-0.6,0.1-0.9,0.4c-0.3,0.3-0.5,0.6-0.6,1c0,0,0,0.1,0,0.1
		c-0.1,1.7,0.4,3.4,1.2,5c0.9,1.8,2.1,3.4,3.5,4.9l0,0C401.1,302,404.9,306.5,408,310.7L408,310.7z M359.3,298.7
		c-7.3-7-14.7-14.7-22.3-23.3c-18.2-18.9-36.5-37.7-55-55.7l-13.1,16.9c-1.5,2.2-3.7,3.2-6,3.3c-1.3,0.1-2.5-0.1-3.7-0.6
		c-1.2-0.5-2.3-1.2-3.1-2.2c-1.3-1.5-1.9-3.6-1.4-5.9l0,0l6.1-23.6c0.3-2.6-0.1-5.1-1.2-7.4c-1.2-2.5-3.1-4.9-5.6-7.2l0,0
		c-1.5-1.3-2.8-2.6-4.2-3.8l-1.2-1.1c-6.8-6.2-13.7-12.4-20.1-18.7c-6.4-6.2-12.3-12.4-17.1-18.5c-6.5-8.1-11.3-16.1-13.5-24.7
		c-2.3-8.8-2-18,1.8-28.4c5.6-15.4,18.8-33.5,34.4-49.1c15.6-15.6,33.7-28.8,49.1-34.4c10.4-3.8,19.7-4.1,28.4-1.8
		c8.6,2.3,16.6,7.1,24.7,13.5c6.1,4.9,12.2,10.7,18.8,17.5s13.4,14.3,20.9,22.5l0,0c3.5,3.8,6.5,6.4,9.4,7.9c2.5,1.4,5,1.8,7.6,1.5
		l23.5-6c0,0,0.1,0,0.1,0c2.3-0.6,4.4,0,5.9,1.4c1,0.8,1.7,1.9,2.2,3.1c0.5,1.2,0.7,2.4,0.6,3.7c-0.1,2.3-1.2,4.6-3.3,6l-16.9,13.1
		c17.7,18.1,36,36,54.5,53.9l0,0c9.5,8.4,17.9,16.4,25.4,24.4l1.6,1.5c19.9,19.1,39.7,38,58.7,56.8l0,0c7.7,7.9,12.3,16.2,13.8,24.6
		c1.6,8.7,0,17.3-4.7,25.4l0,0l0,0c-10.8,18-23.6,33.7-38.1,47.7c-14.4,14-30.4,26.4-47.5,38c-0.1,0.1-0.2,0.1-0.3,0.2
		c-8,4.7-16.6,6.2-25.3,4.6c-8.4-1.6-16.7-6.1-24.6-13.8l0,0c-18.8-19-37.7-38.7-56.8-58.7L359.3,298.7L359.3,298.7z M388.2,102.7
		l30.3-23.5c0.1-0.1,0.2-0.1,0.3-0.2c0.6-0.4,0.9-1.1,0.9-1.8c0-0.5-0.1-0.9-0.2-1.4c-0.1-0.4-0.4-0.7-0.6-0.9
		c-0.3-0.2-0.6-0.3-1.1-0.2l-0.1,0l-23.6,6.1c-0.2,0-0.3,0.1-0.5,0.1c-3.8,0.5-7.3-0.2-10.9-2.1c-0.5-0.3-1.1-0.6-1.6-0.9l-6.6,6.2
		c3,3.1,5.9,6.9,8.6,11c0.1,0.1,0.2,0.3,0.3,0.4c0.2,0.3,0.4,0.7,0.6,1c0.5,0.8,1,1.6,1.5,2.4C386.5,100.2,387.3,101.4,388.2,102.7
		L388.2,102.7z M480.8,178.6c-8.3-7.9-16.6-15.9-25-23.9l0,0c-0.1-0.1-0.1-0.1-0.2-0.2c-18.7-18-37.2-36.1-55.1-54.4l-9.2,7.1
		c6.6,9.3,14.3,18.7,22.5,28c14.8,16.8,31,32.9,44.7,45.6c2.4,2.2,5.6,5.3,9.2,8.9c5.3,5.2,11.6,11.4,17.8,17.1
		c0.3,0.3,0.7,0.6,1,0.9l0,0c4.4,4,8.8,7.7,12.6,10.6c0.3,0.1,0.5,0.2,0.7,0.4c0.2,0.2,0.5,0.4,0.7,0.6c3.9,2.8,7.3,4.6,9.6,4.8
		c0.9,0.1,1.6,0,2-0.2c0.1-0.1,0.2-0.2,0.3-0.3c0.1-0.1,0.1-0.3,0.1-0.5c0.1-0.6-0.1-1.2-0.4-1.9c-5.9-11.4-13.4-22.3-22.7-33.2
		C486.7,185.1,483.8,181.8,480.8,178.6L480.8,178.6z M190.4,474.9c-0.4,3.2,1.2,6.5,4,9.8c0.2,0.1,0.5,0.3,0.7,0.5
		c0.3,0.3,0.5,0.6,0.7,1c2.9,3,6.8,6,11.1,8.9c0.2,0.1,0.5,0.2,0.7,0.3c2.1,1.3,4.3,2.7,6.4,4.1c5.6,3.3,11.3,6.4,16.4,9.1
		c2.1,1.1,3.4,1.8,3.8,2c4.3,2.3,7.2,3.3,9.3,2.7c2.1-0.6,4.1-3,6.7-7.5l0.2-0.4c11.3-19.6,17-29.4,24.9-37.3
		c7.9-7.9,17.7-13.6,37.3-24.9l0.4-0.2c4.5-2.6,6.9-4.6,7.5-6.7c0.6-2.1-0.4-5-2.7-9.3c-0.2-0.4-0.9-1.6-2-3.8
		c-3-5.6-6.4-12.1-10.1-18.2c-1.1-1.6-2.1-3.2-3-4.7c-0.1-0.1-0.1-0.2-0.2-0.3c-3-4.5-6.1-8.6-9.3-11.6c-0.3-0.1-0.5-0.3-0.7-0.5
		c-0.1-0.1-0.2-0.3-0.3-0.4c-3.4-2.9-6.7-4.6-10-4.2c-21.7,2.5-43.4,14.6-60.3,31.5C205,431.5,192.9,453.2,190.4,474.9L190.4,474.9z
		 M193.2,491.1l-6,6.3c0.4,0.7,0.8,1.4,1.1,2.1c1.6,3.3,2.2,6.9,1.7,10.7c0,0.1,0,0.2-0.1,0.3l0,0l-6.1,23.7l0,0
		c-0.1,0.4,0,0.8,0.2,1.1c0.2,0.3,0.5,0.5,0.9,0.6c0.4,0.2,0.9,0.2,1.4,0.2c0.7,0,1.4-0.3,1.8-1c0-0.1,0.1-0.1,0.1-0.2l0,0
		l23.5-30.3c-0.4-0.3-0.9-0.6-1.3-0.9C204,499.9,197.8,495.6,193.2,491.1L193.2,491.1z M327.9,616.3c-0.2-0.2-0.3-0.5-0.4-0.7
		c-2.9-3.9-6.6-8.2-10.6-12.6l0,0c-0.3-0.3-0.6-0.7-0.9-1c-5.7-6.2-11.9-12.5-17.1-17.8c-3.6-3.7-6.7-6.9-8.9-9.2
		c-12.7-13.7-28.8-29.9-45.6-44.7c-9.3-8.2-18.8-15.9-28-22.5l-7.2,9.2c18.2,17.7,36.2,36.2,54.1,54.7c0.2,0.1,0.4,0.3,0.5,0.5
		c0.4,0.4,0.7,0.8,1.1,1.3c7.3,7.6,14.6,15.2,21.8,22.8c3.6,3.4,7.1,6.6,10.7,9.6c10.9,9.3,21.8,16.8,33.2,22.7
		c0.6,0.3,1.3,0.5,1.9,0.4c0.2,0,0.4-0.1,0.5-0.1c0.1-0.1,0.2-0.2,0.3-0.3c0.2-0.4,0.3-1.1,0.2-2c-0.2-2.3-2-5.7-4.8-9.6
		C328.3,616.8,328.1,616.5,327.9,616.3L327.9,616.3z M331.8,612.5c0.1,0.1,0.2,0.2,0.3,0.3c1.9,2.2,3.7,4,5.5,5.5
		c1.8,1.5,3.5,2.6,5.2,3.5c2.8,1.6,5.5,2.6,8,3.1c2.4,0.5,4.8,0.5,7.2,0c4.4-0.9,11.2-4.7,18.6-9.7c8.8-6,18.2-13.6,25.5-20.4
		c6.8-7.3,14.5-16.8,20.4-25.5c5-7.4,8.8-14.2,9.7-18.6c0.5-2.4,0.5-4.7,0-7.2c-0.5-2.5-1.6-5.2-3.1-8c-0.9-1.6-2.1-3.4-3.5-5.2
		c-1.5-1.8-3.3-3.6-5.5-5.5c-0.1-0.1-0.2-0.2-0.3-0.3c-4.2-3.1-8.7-6.9-13.2-11l0,0c-1.5-1.4-3.2-2.6-4.9-3.5
		c-1.6-0.8-3.3-1.3-5-1.2c0,0-0.1,0-0.1,0c-0.4,0.1-0.8,0.3-1,0.6c-0.2,0.3-0.4,0.6-0.4,0.9c0,0,0,0.1,0,0.1
		c1,8.4,1.3,15.4-2.4,23.6c-3.4,7.7-10.3,16.2-23.4,27.8c-11.6,13.1-20.2,20-27.8,23.4c-8.2,3.7-15.2,3.4-23.6,2.4c0,0-0.1,0-0.1,0
		c-0.3,0-0.6,0.1-0.9,0.4c-0.3,0.3-0.5,0.6-0.6,1c0,0,0,0.1,0,0.1c-0.1,1.7,0.4,3.4,1.2,5c0.9,1.8,2.1,3.4,3.5,4.9l0,0
		C324.9,603.8,328.8,608.3,331.8,612.5L331.8,612.5z M283.1,600.4c-7.3-7-14.7-14.7-22.3-23.3c-18.2-18.9-36.5-37.7-55-55.7
		l-13.1,16.9c-1.5,2.2-3.7,3.2-6,3.3c-1.3,0.1-2.5-0.1-3.7-0.6c-1.2-0.5-2.3-1.2-3.1-2.2c-1.3-1.5-1.9-3.6-1.4-5.9l0,0l6.1-23.6
		c0.3-2.6-0.1-5.1-1.2-7.4c-1.2-2.5-3.1-4.9-5.6-7.2l0,0c-1.5-1.3-2.8-2.6-4.2-3.8l-1.2-1.1c-6.8-6.2-13.7-12.4-20.1-18.7
		s-12.3-12.4-17.1-18.5c-6.5-8.1-11.3-16.1-13.5-24.7c-2.3-8.8-2-18,1.8-28.4c5.6-15.4,18.8-33.5,34.4-49.1
		c15.6-15.6,33.7-28.8,49.1-34.4c10.4-3.8,19.7-4.1,28.4-1.8c8.6,2.3,16.6,7.1,24.7,13.5c6.1,4.9,12.2,10.7,18.8,17.5
		c6.6,6.8,13.4,14.3,20.9,22.5l0,0c3.5,3.8,6.5,6.4,9.4,7.9c2.5,1.4,5,1.8,7.6,1.5l23.5-6c0,0,0.1,0,0.1,0c2.3-0.6,4.4,0,5.9,1.4
		c1,0.8,1.7,1.9,2.2,3.1c0.5,1.2,0.7,2.4,0.6,3.7c-0.1,2.3-1.2,4.6-3.3,6l-16.9,13.1c17.7,18.1,36,36,54.5,53.9l0,0
		c9.5,8.4,17.9,16.4,25.4,24.4l1.6,1.5c19.9,19.1,39.7,38,58.7,56.8l0,0c7.7,7.9,12.3,16.2,13.8,24.6c1.6,8.7,0,17.3-4.7,25.4l0,0
		l0,0c-10.8,18-23.6,33.7-38.1,47.7c-14.4,14-30.4,26.4-47.5,38c-0.1,0.1-0.2,0.1-0.3,0.2c-8,4.7-16.6,6.2-25.3,4.6
		c-8.4-1.6-16.7-6.1-24.6-13.8l0,0c-18.8-19-37.7-38.7-56.8-58.7L283.1,600.4L283.1,600.4z M312,404.5l30.3-23.5
		c0.1-0.1,0.2-0.1,0.3-0.2c0.6-0.4,0.9-1.1,0.9-1.8c0-0.5-0.1-0.9-0.2-1.4c-0.1-0.4-0.4-0.7-0.6-0.9c-0.3-0.2-0.6-0.3-1.1-0.2
		l-0.1,0l-23.6,6.1c-0.2,0-0.3,0.1-0.5,0.1c-3.8,0.5-7.3-0.2-10.9-2.1c-0.5-0.3-1.1-0.6-1.6-0.9l-6.6,6.2c3,3.1,5.9,6.9,8.6,11
		c0.1,0.1,0.2,0.3,0.3,0.4c0.2,0.3,0.4,0.7,0.6,1c0.5,0.8,1,1.6,1.5,2.4C310.3,401.9,311.1,403.2,312,404.5L312,404.5z M404.6,480.4
		c-8.3-7.9-16.6-15.9-25-23.9l0,0c-0.1-0.1-0.1-0.1-0.2-0.2c-18.7-18-37.2-36.1-55.1-54.4l-9.2,7.1c6.6,9.3,14.3,18.7,22.5,28
		c14.8,16.8,31,32.9,44.7,45.6c2.4,2.2,5.6,5.3,9.2,8.9c5.3,5.2,11.6,11.4,17.8,17.1c0.3,0.3,0.7,0.6,1,0.9l0,0
		c4.4,4,8.8,7.7,12.6,10.6c0.3,0.1,0.5,0.2,0.7,0.4c0.2,0.2,0.5,0.4,0.7,0.6c3.9,2.8,7.3,4.6,9.6,4.8c0.9,0.1,1.6,0,2-0.2
		c0.1-0.1,0.2-0.2,0.3-0.3c0.1-0.1,0.1-0.3,0.1-0.5c0.1-0.6-0.1-1.2-0.4-1.9c-5.9-11.4-13.4-22.3-22.7-33.2
		C410.6,486.8,407.6,483.6,404.6,480.4L404.6,480.4z M588.8,282.5c-2.2-2.2-2.3-5.9,0-8.1s5.9-2.3,8.1,0l361.3,358.3
		c2.2,2.2,2.3,5.9,0,8.1s-5.9,2.3-8.1,0L588.8,282.5z M511.1,636l-10.2,10.2L490.7,636l10.2-10.2L511.1,636z M714.7,839.7
		l-10.2,10.2l-10.2-10.2l10.2-10.2L714.7,839.7z M674,799l-10.2,10.2L653.6,799l10.2-10.2L674,799z M633.3,758.2l-10.2,10.2
		l-10.2-10.2l10.2-10.2L633.3,758.2z M592.5,717.5l-10.2,10.2l-10.2-10.2l10.2-10.2L592.5,717.5z M551.8,676.8L541.6,687l-10.2-10.2
		l10.2-10.2L551.8,676.8z M611.7,345l-10.2,10.2L591.3,345l10.2-10.2L611.7,345z M856.1,589.4l-10.2,10.2l-10.2-10.2l10.2-10.2
		L856.1,589.4z M815.3,548.6l-10.2,10.2L795,548.6l10.2-10.2L815.3,548.6z M774.6,507.9l-10.2,10.2l-10.2-10.2l10.2-10.2
		L774.6,507.9z M733.9,467.2l-10.2,10.2l-10.2-10.2l10.2-10.2L733.9,467.2z M693.2,426.5L683,436.7l-10.2-10.2l10.2-10.2
		L693.2,426.5z M652.4,385.7l-10.2,10.2l-10.2-10.2l10.2-10.2L652.4,385.7z M509.6,584.3c-2.2-2.2-2.2-5.9,0-8.2
		c2.2-2.2,5.9-2.2,8.2,0l267,267c2.2,2.2,2.2,5.9,0,8.2c-2.2,2.2-5.9,2.2-8.2,0L509.6,584.3z M532.5,840.9c2.2,2.2,2.2,5.9,0,8.2
		c-2.2,2.2-5.9,2.2-8.2,0L384.6,709.3c-2.2-2.2-2.2-5.9,0-8.2c2.2-2.2,5.9-2.2,8.2,0L532.5,840.9z M911.1,840c2.2,2.2,2.2,5.9,0,8.1
		c-2.2,2.2-5.9,2.2-8.1,0l-439-440.6c-2.2-2.2-2.2-5.9,0-8.1c2.2-2.2,5.9-2.2,8.1,0L911.1,840z"/>
</g>
<text transform="matrix(1 0 0 1 108.0002 864.2166)" fill="#FFFFFF" font-family="'HelveticaNeueLTPro-BdEx'" font-size="7.200000e-002">Created by Olena Panasovska</text>
<text transform="matrix(1 0 0 1 108.0002 864.2881)" fill="#FFFFFF" font-family="'HelveticaNeueLTPro-BdEx'" font-size="7.200000e-002">from the Noun Project</text>
</svg>
